<?xml version="1.0" encoding="utf-8"?>
<!-- Generator: Adobe Illustrator 16.0.0, SVG Export Plug-In . SVG Version: 6.00 Build 0)  -->
<!DOCTYPE svg PUBLIC "-//W3C//DTD SVG 1.1//EN" "http://www.w3.org/Graphics/SVG/1.1/DTD/svg11.dtd">
<svg version="1.1" xmlns="http://www.w3.org/2000/svg" xmlns:xlink="http://www.w3.org/1999/xlink" x="0px" y="0px"
	 width="547.333px" height="74.5px" viewBox="-281.667 -4.5 547.333 74.5" enable-background="new -281.667 -4.5 547.333 74.5"
	 xml:space="preserve">
<g id="Layer_2">
	<path fill="#0B3357" d="M1.606,59.73c-2.379,1.928-4.67,3.29-6.873,4.09c-2.209,0.786-4.581,1.191-7.096,1.191
		c-4.168,0-7.375-0.972-9.614-2.915c-2.24-1.933-3.36-4.415-3.36-7.434c0-1.769,0.422-3.384,1.268-4.854
		c0.845-1.459,1.949-2.631,3.322-3.515c1.374-0.886,2.917-1.551,4.623-2.007c1.262-0.321,3.17-0.616,5.721-0.918
		c5.198-0.587,9.022-1.3,11.474-2.118c0.027-0.836,0.042-1.374,0.042-1.596c0-2.504-0.607-4.258-1.827-5.283
		c-1.642-1.385-4.089-2.072-7.327-2.072c-3.031,0-5.262,0.503-6.704,1.512c-1.442,1.015-2.508,2.8-3.196,5.356l-6.296-0.812
		c0.57-2.569,1.522-4.634,2.826-6.213c1.311-1.576,3.207-2.791,5.679-3.64c2.483-0.851,5.351-1.274,8.622-1.274
		c3.237,0,5.874,0.359,7.893,1.089c2.027,0.729,3.518,1.639,4.469,2.736c0.95,1.099,1.628,2.493,2.007,4.174
		c0.212,1.035,0.322,2.926,0.322,5.646v8.172c0,5.695,0.133,9.299,0.406,10.808c0.281,1.507,0.815,2.955,1.633,4.343H2.9
		C2.229,62.921,1.795,61.437,1.606,59.73z M1.067,46.048c-2.335,0.908-5.834,1.679-10.503,2.314
		c-2.652,0.368-4.521,0.782-5.61,1.226c-1.1,0.454-1.938,1.119-2.542,1.997c-0.596,0.877-0.893,1.837-0.893,2.904
		c0,1.639,0.645,3,1.945,4.089c1.299,1.089,3.201,1.639,5.704,1.639c2.474,0,4.682-0.518,6.615-1.548
		c1.928-1.037,3.349-2.446,4.248-4.237c0.695-1.383,1.035-3.429,1.035-6.128V46.048z"/>
	<path fill="#0B3357" d="M-102.46,46.229c0-5.762,1.735-10.502,5.23-14.241c3.483-3.724,8.186-5.585,14.11-5.585
		c6.772,0,11.894,2.184,15.357,6.562c2.774,3.544,4.176,7.893,4.176,13.042c0,5.812-1.731,10.576-5.183,14.285
		c-3.452,3.697-8.227,5.546-14.323,5.546c-5.437,0-9.83-1.526-13.183-4.616C-100.399,57.399-102.46,52.406-102.46,46.229z
		 M-89.462,46.188c0,3.358,0.608,5.853,1.83,7.458c1.226,1.618,2.752,2.42,4.602,2.42c1.873,0,3.405-0.799,4.604-2.382
		c1.203-1.591,1.802-4.138,1.802-7.639c0-3.271-0.61-5.699-1.818-7.307c-1.207-1.606-2.704-2.398-4.489-2.398
		c-1.894,0-3.456,0.805-4.689,2.435C-88.844,40.409-89.462,42.871-89.462,46.188z"/>
	<path fill="#0B3357" d="M-62.587,12.896h13.096v18.051c1.294-1.506,2.775-2.668,4.414-3.414c1.646-0.766,3.468-1.131,5.47-1.131
		c4.118,0,7.52,1.655,10.219,4.945c2.701,3.302,4.053,8.057,4.053,14.241c0,4.127-0.624,7.751-1.854,10.899
		c-1.242,3.122-2.938,5.482-5.109,7.037c-2.181,1.543-4.598,2.339-7.261,2.339c-2.267,0-4.353-0.554-6.236-1.642
		c-1.435-0.853-2.979-2.451-4.651-4.808v5.578h-12.14V12.896z M-49.589,46.008c0,3.25,0.547,5.591,1.646,7.052
		c1.093,1.466,2.483,2.188,4.155,2.188c1.548,0,2.844-0.722,3.903-2.14c1.047-1.441,1.58-3.855,1.58-7.247
		c0-2.979-0.513-5.173-1.545-6.566c-1.027-1.399-2.276-2.097-3.742-2.097c-1.765,0-3.209,0.729-4.319,2.177
		C-49.032,40.841-49.589,43.055-49.589,46.008z"/>
</g>
<g id="Layer_1">
	
		<radialGradient id="SVGID_1_" cx="-64.2568" cy="101.9072" r="123.3346" gradientTransform="matrix(1 0 0 -1 202.5 150)" gradientUnits="userSpaceOnUse">
		<stop  offset="0" style="stop-color:#FAAF40"/>
		<stop  offset="0.0432" style="stop-color:#F9A538"/>
		<stop  offset="0.1116" style="stop-color:#F89D31"/>
		<stop  offset="0.2269" style="stop-color:#F89A2F"/>
		<stop  offset="0.5276" style="stop-color:#F7922D"/>
		<stop  offset="1" style="stop-color:#F37B28"/>
	</radialGradient>
	<path fill="url(#SVGID_1_)" d="M62.4,65.2V42.4c0-4.801-2-7.2-5.9-7.2s-5.9,2.399-5.9,7.2v22.8H38.9V42.4c0-4.801-1.9-7.2-5.8-7.2
		s-5.9,2.399-5.9,7.2v22.8H15.6V41.1c0-5,1.7-8.7,5.2-11.3c3-2.3,7.2-3.4,12.3-3.4c5.3,0,9.1,1.3,11.6,4c2.1-2.7,6-4,11.7-4
		c5.2,0,9.3,1.1,12.3,3.4c3.5,2.6,5.2,6.3,5.2,11.3v24.2H62.4V65.2z"/>
	
		<radialGradient id="SVGID_2_" cx="-64.2568" cy="101.9072" r="123.3347" gradientTransform="matrix(1 0 0 -1 202.5 150)" gradientUnits="userSpaceOnUse">
		<stop  offset="0" style="stop-color:#FAAF40"/>
		<stop  offset="0.0432" style="stop-color:#F9A538"/>
		<stop  offset="0.1116" style="stop-color:#F89D31"/>
		<stop  offset="0.2269" style="stop-color:#F89A2F"/>
		<stop  offset="0.5276" style="stop-color:#F7922D"/>
		<stop  offset="1" style="stop-color:#F37B28"/>
	</radialGradient>
	<path fill="url(#SVGID_2_)" d="M96,66.2c-5.9,0-10.7-1.9-14.6-5.601c-3.8-3.699-5.8-8.5-5.8-14.399c0-5.9,1.9-10.7,5.8-14.4
		c3.8-3.7,8.7-5.6,14.6-5.6s10.8,1.9,14.6,5.6c3.9,3.7,5.8,8.5,5.8,14.4c0,5.899-1.9,10.7-5.8,14.399C106.7,64.3,101.8,66.2,96,66.2
		z M96,35.5c-2.8,0-5,1.1-6.5,3.2c-1.5,2.1-2.3,4.6-2.3,7.6c0,2.9,0.7,5.4,2.1,7.4c1.6,2.3,3.8,3.399,6.6,3.399
		c2.8,0,5-1.1,6.6-3.399c1.5-2,2.2-4.5,2.2-7.4c0-2.899-0.7-5.399-2.1-7.399C101.1,36.6,98.8,35.5,96,35.5z"/>
	
		<radialGradient id="SVGID_3_" cx="-64.2568" cy="101.9072" r="123.3362" gradientTransform="matrix(1 0 0 -1 202.5 150)" gradientUnits="userSpaceOnUse">
		<stop  offset="0" style="stop-color:#FAAF40"/>
		<stop  offset="0.0432" style="stop-color:#F9A538"/>
		<stop  offset="0.1116" style="stop-color:#F89D31"/>
		<stop  offset="0.2269" style="stop-color:#F89A2F"/>
		<stop  offset="0.5276" style="stop-color:#F7922D"/>
		<stop  offset="1" style="stop-color:#F37B28"/>
	</radialGradient>
	<path fill="url(#SVGID_3_)" d="M138,66.2c-5.9,0-10.7-1.9-14.6-5.601c-3.8-3.699-5.8-8.5-5.8-14.399c0-5.9,1.9-10.7,5.8-14.4
		c3.8-3.7,8.7-5.6,14.6-5.6s10.8,1.9,14.6,5.6c3.9,3.7,5.801,8.5,5.801,14.4c0,5.899-1.9,10.7-5.801,14.399
		C148.7,64.3,143.8,66.2,138,66.2z M138,35.5c-2.8,0-5,1.1-6.5,3.2c-1.5,2.1-2.3,4.6-2.3,7.6c0,2.9,0.7,5.4,2.1,7.4
		C132.9,56,135.1,57.1,137.9,57.1c2.8,0,5-1.1,6.6-3.399c1.5-2,2.2-4.5,2.2-7.4c0-2.899-0.7-5.399-2.101-7.399
		C143.1,36.6,140.8,35.5,138,35.5z"/>
	
		<radialGradient id="SVGID_4_" cx="-64.2563" cy="101.9072" r="123.3338" gradientTransform="matrix(1 0 0 -1 202.5 150)" gradientUnits="userSpaceOnUse">
		<stop  offset="0" style="stop-color:#FAAF40"/>
		<stop  offset="0.0432" style="stop-color:#F9A538"/>
		<stop  offset="0.1116" style="stop-color:#F89D31"/>
		<stop  offset="0.2269" style="stop-color:#F89A2F"/>
		<stop  offset="0.5276" style="stop-color:#F7922D"/>
		<stop  offset="1" style="stop-color:#F37B28"/>
	</radialGradient>
	<path fill="url(#SVGID_4_)" d="M189.8,65.1v-3.8c-1,1.4-2.8,2.5-5.3,3.3c-2.2,0.801-4.3,1.101-6.3,1.101c-5.5,0-10-1.9-13.3-5.7
		c-3.4-3.8-5-8.5-5-14.1c0-5.5,1.6-10.2,4.899-13.9s7.7-5.6,13.101-5.6c6.199,0,10.1,1.7,11.899,5V0h11.3v65.1H189.8z M189.8,43.5
		c0-2.1-1-4.1-3-6s-4-2.9-6.1-2.9c-3,0-5.3,1.2-7.101,3.6c-1.5,2.1-2.3,4.8-2.3,7.899c0,3,0.8,5.601,2.3,7.801
		c1.7,2.5,4.101,3.699,7.101,3.699c1.8,0,3.7-0.8,5.899-2.5c2.101-1.699,3.2-3.399,3.2-5.199V43.5z"/>
	
		<radialGradient id="SVGID_5_" cx="-64.2563" cy="101.9072" r="123.3342" gradientTransform="matrix(1 0 0 -1 202.5 150)" gradientUnits="userSpaceOnUse">
		<stop  offset="0" style="stop-color:#FAAF40"/>
		<stop  offset="0.0432" style="stop-color:#F9A538"/>
		<stop  offset="0.1116" style="stop-color:#F89D31"/>
		<stop  offset="0.2269" style="stop-color:#F89A2F"/>
		<stop  offset="0.5276" style="stop-color:#F7922D"/>
		<stop  offset="1" style="stop-color:#F37B28"/>
	</radialGradient>
	<path fill="url(#SVGID_5_)" d="M205.2,65.1V0h11.6v65.1H205.2z"/>
	
		<radialGradient id="SVGID_6_" cx="-64.2559" cy="101.9072" r="123.3336" gradientTransform="matrix(1 0 0 -1 202.5 150)" gradientUnits="userSpaceOnUse">
		<stop  offset="0" style="stop-color:#FAAF40"/>
		<stop  offset="0.0432" style="stop-color:#F9A538"/>
		<stop  offset="0.1116" style="stop-color:#F89D31"/>
		<stop  offset="0.2269" style="stop-color:#F89A2F"/>
		<stop  offset="0.5276" style="stop-color:#F7922D"/>
		<stop  offset="1" style="stop-color:#F37B28"/>
	</radialGradient>
	<path fill="url(#SVGID_6_)" d="M230.7,49.7c0.5,2.399,1.7,4.399,3.5,6.1c1.899,1.7,3.899,2.601,6.2,2.601c1.6,0,3.3-0.4,5.199-1.2
		c2.301-1,3.4-2.101,3.4-3.4l12.2-0.1c-1.7,4.1-4.7,7.3-8.8,9.5c-3.9,2.1-8.101,3.2-12.801,3.2c-5.899,0-10.899-1.9-14.8-5.5
		c-3.899-3.7-5.899-8.5-5.899-14.5c0-6.2,2-11,5.899-14.7c3.9-3.6,9-5.4,15.2-5.4c6.8,0,12.1,2.2,15.9,6.7c3.5,4.1,5.3,9.7,5.3,16.7
		H230.7z M249.7,42.5c-0.5-2.5-1.5-4.5-3.101-6.1c-1.8-1.7-3.899-2.601-6.199-2.601c-2.4,0-4.4,0.8-6.101,2.5
		c-1.6,1.7-2.7,3.7-3.3,6.2H249.7z"/>
	<path fill="#58595B" d="M16.7,32.2c-0.4,2-0.8,4-1.2,6c11,3.7,21.4,0.1,26.9-9.5C34.3,23.1,26.8,28.8,16.7,32.2"/>
	
		<linearGradient id="SVGID_7_" gradientUnits="userSpaceOnUse" x1="-186.8999" y1="118.1406" x2="-160.6392" y2="118.1406" gradientTransform="matrix(1 0 0 -1 202.5 150)">
		<stop  offset="0" style="stop-color:#929497"/>
		<stop  offset="0.1245" style="stop-color:#757578"/>
		<stop  offset="0.2792" style="stop-color:#575658"/>
		<stop  offset="0.4403" style="stop-color:#403E3F"/>
		<stop  offset="0.6085" style="stop-color:#302D2E"/>
		<stop  offset="0.7884" style="stop-color:#262223"/>
		<stop  offset="1" style="stop-color:#231F20"/>
	</linearGradient>
	<path fill="url(#SVGID_7_)" d="M16.7,30.7c-0.4,2.3-0.7,4.5-1.1,6.8c10.5,3.6,20.8,0.5,26.3-8.9C34.9,20.5,27.1,27.2,16.7,30.7"/>
	
		<linearGradient id="SVGID_8_" gradientUnits="userSpaceOnUse" x1="-181.8623" y1="126.9014" x2="-170.9592" y2="111.3301" gradientTransform="matrix(1 0 0 -1 202.5 150)">
		<stop  offset="0" style="stop-color:#231F20"/>
		<stop  offset="1" style="stop-color:#231F20;stop-opacity:0"/>
	</linearGradient>
	<path fill="url(#SVGID_8_)" d="M29.2,33.4c-4.8-1-10,1.5-13.6,4.1c-2.3-16.8,8.1-16.4,21.7-12.2c-0.9,4.1-2.4,9.6-5,12.9
		C32.2,36,31.2,34.5,29.2,33.4"/>
	
		<linearGradient id="SVGID_9_" gradientUnits="userSpaceOnUse" x1="-201.2998" y1="126.4609" x2="-153.2998" y2="126.4609" gradientTransform="matrix(1 0 0 -1 202.5 150)">
		<stop  offset="0" style="stop-color:#929497"/>
		<stop  offset="0.1245" style="stop-color:#757578"/>
		<stop  offset="0.2792" style="stop-color:#575658"/>
		<stop  offset="0.4403" style="stop-color:#403E3F"/>
		<stop  offset="0.6085" style="stop-color:#302D2E"/>
		<stop  offset="0.7884" style="stop-color:#262223"/>
		<stop  offset="1" style="stop-color:#231F20"/>
	</linearGradient>
	<path fill="url(#SVGID_9_)" d="M1.2,30.7c17.6-10.6,27.5-12.6,48-14.7C25.4,34.8,24.8,30.7,1.2,30.7"/>
	<line fill="none" stroke="#4A4A4C" stroke-width="0.5" x1="49.2" y1="16.1" x2="30.3" y2="29.8"/>
	<path opacity="0.23" fill="#231F20" enable-background="new    " d="M26.7,23.4C26.9,25.6,26.4,21.3,26.7,23.4"/>
	<line fill="none" stroke="#A8ABAD" stroke-width="0.5" x1="1.2" y1="30.7" x2="30.3" y2="29.8"/>
	<path display="none" fill="none" stroke="#F16922" stroke-width="0.5" d="M24.9,23.6C12.9,26.9-2.7,25.8,1.5,42"/>
	<path display="none" fill="#F16922" d="M2.6,55.7c-1.8-4.5-4-9.5-1.4-15.7C2.9,45.8,2.6,50.2,2.6,55.7"/>
	<path fill="none" stroke="#F16922" stroke-width="0.5" d="M24.9,23.6c-5,1.4-21.4,5-21.6,7.1c-0.5,3.9-0.1,10.1-0.1,10.1"/>
	<path fill="#F16922" d="M4.7,55.7c-1.8-4.5-4-9.5-1.4-15.7C5,45.8,4.7,50.2,4.7,55.7"/>
	
		<ellipse transform="matrix(-0.3356 -0.942 0.942 -0.3356 10.384 53.915)" fill="#6D6E70" cx="24.206" cy="23.295" rx="0.4" ry="0.8"/>
</g>
<g id="Layer_3">
	<g id="Shape_1">
		<g>
			<polygon fill="#209DD3" points="-277.206,65.012 -107.156,65.012 -107.156,22.153 			"/>
		</g>
	</g>
	<g id="Shape_2">
		<g>
			<path fill="#0B3357" d="M-107.148,0.372c0,0-65.506,22.993-81.232,25.929c-27.647,6.048-41.648-13.305-61.866-5.529
				c-17.456,5.529-17.285,33.697-25.925,41.128c0.173,0,5.876-1.554,5.876-1.729c4.321-27.304,25.403-47.523,47.351-12.441
				c11.061-2.594,115.786-28.34,115.786-28.34L-107.148,0.372z"/>
		</g>
	</g>
	<g>
		<path fill="#FFFFFF" d="M-136.191,33.907v16.708c0.864,5.645,11.293,11.981,11.293,11.981s10.773-6.799,11.405-11.871V33.907
			C-117.986,32.637-132.377,32.977-136.191,33.907z"/>
	</g>
	<polygon fill="#E62003" points="-127.375,33.561 -127.375,43.581 -135.269,43.581 -135.269,48.822 -127.375,48.822 -127.375,60.93 
		-122.474,60.93 -122.474,48.653 -114.298,48.653 -114.298,43.581 -122.479,43.581 -122.479,33.561 	"/>
	<g>
		<path fill="#0B3357" d="M-124.042,34.962c3.608,0,6.691,0.173,8.667,0.474v15.156c-0.444,2.669-5.525,7.058-9.538,9.764
			c-3.693-2.431-8.79-6.731-9.389-9.903V35.484C-131.949,35.171-128.001,34.962-124.042,34.962 M-124.042,33.078
			c-4.984,0-10.096,0.329-12.149,0.829v16.708c0.864,5.645,11.293,11.981,11.293,11.981s10.773-6.799,11.405-11.871V33.907
			C-115.571,33.322-119.761,33.078-124.042,33.078L-124.042,33.078z"/>
	</g>
	
		<text transform="matrix(1.0798 -0.2622 0.236 0.9718 -218.4541 43.3896)" fill="#F7A30C" font-family="'MinionPro-Regular'" font-size="9.022">LUCERE ~ AUDE</text>
</g>
</svg>
